<svg width="33" height="32" viewBox="0 0 33 32" fill="none" xmlns="http://www.w3.org/2000/svg">
<path d="M24.3233 20.1767L24.3232 20.1767L23.9697 20.5303C23.9697 20.5303 23.9697 20.5303 23.9697 20.5303C23.8721 20.6279 23.7138 20.6279 23.6162 20.5303C23.6162 20.5303 23.6162 20.5303 23.6161 20.5303L16.8536 13.7677L16.5 13.4141L16.1465 13.7677L9.38388 20.5303C9.28625 20.6279 9.12803 20.6279 9.03039 20.5303L8.67679 20.1767C8.57915 20.079 8.57915 19.9208 8.67679 19.8232L16.3233 12.1767C16.4209 12.0791 16.5791 12.0791 16.6768 12.1767L24.3233 19.8232C24.3233 19.8232 24.3233 19.8232 24.3233 19.8232C24.4209 19.9208 24.4209 20.0791 24.3233 20.1767Z" fill="#0E73AA" stroke="#0E73AA"/>
</svg>
