<svg width="49" height="48" viewBox="0 0 49 48" fill="none" xmlns="http://www.w3.org/2000/svg">
<path d="M16.167 24C20.727 24 24.167 20.56 24.167 16C24.167 11.44 20.727 7.99997 16.167 7.99997C11.607 7.99997 8.16699 11.44 8.16699 16C8.16699 20.56 11.607 24 16.167 24ZM16.167 12C18.523 12 20.167 13.644 20.167 16C20.167 18.356 18.523 20 16.167 20C13.811 20 12.167 18.356 12.167 16C12.167 13.644 13.811 12 16.167 12ZM18.167 26H14.167C8.65299 26 4.16699 30.486 4.16699 36V38H8.16699V36C8.16699 32.692 10.859 30 14.167 30H18.167C21.475 30 24.167 32.692 24.167 36V38H28.167V36C28.167 30.486 23.681 26 18.167 26ZM36.895 5.27197L34.067 8.09997C36.709 10.746 38.167 14.262 38.167 18C38.167 21.738 36.709 25.254 34.067 27.9L36.895 30.728C40.295 27.326 42.167 22.806 42.167 18C42.167 13.194 40.295 8.67397 36.895 5.27197Z" fill="black"/>
<path d="M31.2369 10.9282L28.4089 13.7602C29.5429 14.8902 30.1669 16.3962 30.1669 18.0002C30.1669 19.6042 29.5429 21.1102 28.4089 22.2402L31.2369 25.0722C33.1249 23.1842 34.1669 20.6742 34.1669 18.0002C34.1669 15.3262 33.1249 12.8162 31.2369 10.9282Z" fill="black"/>
</svg>
