<svg width="25" height="25" viewBox="0 0 25 25" fill="none" xmlns="http://www.w3.org/2000/svg">
<path d="M22.2597 8.09192C22.1458 7.66933 21.9232 7.28393 21.614 6.97409C21.3049 6.66425 20.92 6.44078 20.4977 6.32592C18.9317 5.89592 12.6667 5.88892 12.6667 5.88892C12.6667 5.88892 6.40268 5.88192 4.83568 6.29292C4.41361 6.41307 4.0295 6.6397 3.72025 6.95106C3.41099 7.26242 3.18697 7.64804 3.06968 8.07092C2.65668 9.63692 2.65268 12.8849 2.65268 12.8849C2.65268 12.8849 2.64868 16.1489 3.05868 17.6989C3.28868 18.5559 3.96368 19.2329 4.82168 19.4639C6.40368 19.8939 12.6517 19.9009 12.6517 19.9009C12.6517 19.9009 18.9167 19.9079 20.4827 19.4979C20.9052 19.3833 21.2904 19.1603 21.6003 18.8511C21.9102 18.5419 22.1341 18.1572 22.2497 17.7349C22.6637 16.1699 22.6667 12.9229 22.6667 12.9229C22.6667 12.9229 22.6867 9.65792 22.2597 8.09192ZM10.6627 15.8939L10.6677 9.89392L15.8747 12.8989L10.6627 15.8939Z" fill="#0E73AA"/>
</svg>
