<svg width="140" height="56" viewBox="0 0 140 56" fill="none" xmlns="http://www.w3.org/2000/svg">
<path fill-rule="evenodd" clip-rule="evenodd" d="M38.5698 16.75L27.0603 39.25H16.2495L21.0663 29.925H20.8501C16.8764 35.0835 10.9474 38.4794 2.49951 39.25V30.0541C2.49951 30.0541 7.90382 29.7349 11.0809 26.3947H2.49951V16.7502H12.144V24.6826L12.3605 24.6818L16.3016 16.7502H23.5955V24.6323L23.8119 24.632L27.9009 16.75H38.5698Z" fill="black"/>
<path d="M101.333 36.7665H104.439V18.9375H101.333V36.7665Z" fill="black"/>
<path fill-rule="evenodd" clip-rule="evenodd" d="M84.2087 36.5844C84.8837 36.8651 85.5702 37.0054 86.2681 37.0054C87.4209 37.0054 88.4526 36.7248 89.3628 36.1634C90.2729 35.6022 90.9784 34.8286 91.4791 33.8424C91.9797 32.8488 92.2299 31.7223 92.2299 30.4632C92.2299 29.2041 91.9721 28.0777 91.4563 27.084C90.9405 26.0904 90.2237 25.3205 89.3058 24.7744C88.3881 24.2206 87.3451 23.9476 86.1769 23.9552C85.4337 23.9552 84.7207 24.0993 84.038 24.3875C83.3553 24.6758 82.7865 25.0854 82.3313 25.6163C82.2962 25.6567 82.2621 25.6976 82.229 25.7388V18.9489H79.1115V36.7666H82.2062L82.2 35.1021C82.28 35.2002 82.3656 35.2961 82.4565 35.3898C82.9495 35.8981 83.5336 36.2962 84.2087 36.5844ZM87.3944 33.7059C86.8862 34.0169 86.3059 34.1724 85.6536 34.1724C85.0088 34.1724 84.4172 34.0131 83.8787 33.6946C83.3401 33.3683 82.9116 32.9247 82.5929 32.3633C82.2819 31.8021 82.1264 31.1648 82.1264 30.4518C82.1189 29.7388 82.2706 29.1017 82.5816 28.5404C82.9002 27.9715 83.3287 27.5316 83.8673 27.2206C84.4058 26.902 85.0013 26.7465 85.6536 26.7541C86.3059 26.7465 86.8862 26.8982 87.3944 27.2092C87.9102 27.5126 88.3046 27.9488 88.5777 28.5176C88.8583 29.0789 88.9987 29.7237 88.9987 30.4518C88.9987 31.1801 88.8583 31.8248 88.5777 32.3861C88.3046 32.9474 87.9102 33.3873 87.3944 33.7059Z" fill="black"/>
<path d="M43.0696 20.0184H46.6195L49.795 31.6154L53.1731 20.0184H56.1313L59.795 31.3827L62.8442 20.0184H66.0982L61.2968 36.7665H58.2362L54.5107 25.6645L51.091 36.7665H47.9962L43.0696 20.0184Z" fill="black"/>
<path fill-rule="evenodd" clip-rule="evenodd" d="M71.3408 37.0623C70.1043 37.0699 68.9893 36.7968 67.9957 36.2431C67.0095 35.6818 66.2322 34.9043 65.6632 33.9106C65.1019 32.917 64.8213 31.783 64.8213 30.5086C64.8213 29.2723 65.1095 28.1535 65.686 27.1523C66.2624 26.151 67.0437 25.3697 68.0298 24.8084C69.0159 24.2471 70.1157 23.9665 71.3293 23.9665C72.6947 23.9665 73.8893 24.2699 74.9133 24.8767C75.9449 25.4835 76.7148 26.3444 77.223 27.4595C77.7388 28.5669 77.9247 29.8374 77.7805 31.271H68.0347C68.0619 31.8421 68.2044 32.3618 68.4622 32.8298C68.7504 33.3455 69.1524 33.7475 69.6682 34.0358C70.184 34.324 70.7604 34.4681 71.3977 34.4681C71.883 34.4605 72.3344 34.3771 72.7515 34.2179C73.1688 34.051 73.5214 33.8273 73.8097 33.5465C74.1055 33.2659 74.3142 32.9474 74.4355 32.5909H77.6895C77.4923 33.4631 77.0979 34.2406 76.5063 34.9233C75.9145 35.5984 75.1713 36.1255 74.2762 36.5048C73.3812 36.884 72.4027 37.0699 71.3408 37.0623ZM68.4735 28.1421C68.2918 28.4591 68.1658 28.8004 68.0957 29.1661H74.556C74.5092 28.7041 74.3665 28.2832 74.1283 27.9032C73.8552 27.4557 73.4835 27.1105 73.0133 26.8678C72.543 26.6175 72.012 26.4924 71.4204 26.4924C70.7908 26.4924 70.2182 26.6365 69.7023 26.9247C69.1865 27.2129 68.7769 27.6188 68.4735 28.1421Z" fill="black"/>
<path d="M94.5173 24.2282C94.5173 23.2118 94.7485 22.3092 95.2113 21.5203C95.6739 20.7239 96.3225 20.1057 97.1569 19.6657C97.9988 19.2182 98.9811 18.9868 100.104 18.9717V21.7365C99.5803 21.7441 99.1328 21.854 98.7611 22.0664C98.397 22.2712 98.1164 22.5708 97.9191 22.9653C97.7376 23.3284 97.6396 23.7494 97.6253 24.2282H100.035V26.8565H97.6234V36.7665H94.5173V26.8565H92.5148V24.2282H94.5173Z" fill="black"/>
<path fill-rule="evenodd" clip-rule="evenodd" d="M112.334 37.0395C111.068 37.0395 109.934 36.7626 108.932 36.209C107.939 35.6476 107.157 34.874 106.589 33.8878C106.027 32.8942 105.747 31.7678 105.747 30.5086C105.747 29.242 106.027 28.1117 106.589 27.1181C107.157 26.1168 107.939 25.3393 108.932 24.7856C109.934 24.2319 111.068 23.955 112.334 23.955C113.609 23.955 114.746 24.2319 115.748 24.7856C116.756 25.3393 117.542 26.113 118.103 27.1067C118.664 28.1003 118.949 29.2343 118.956 30.5086C118.949 31.7678 118.664 32.8942 118.103 33.8878C117.549 34.874 116.768 35.6476 115.759 36.209C114.75 36.7626 113.609 37.0395 112.334 37.0395ZM112.334 34.1837C113.002 34.1837 113.593 34.032 114.109 33.7286C114.625 33.4176 115.023 32.9852 115.304 32.4315C115.585 31.8702 115.725 31.2292 115.725 30.5086C115.725 29.7805 115.585 29.1357 115.304 28.5744C115.023 28.0131 114.625 27.5808 114.109 27.2774C113.593 26.9664 113.002 26.8109 112.334 26.8109C111.674 26.8109 111.087 26.9664 110.571 27.2774C110.063 27.5808 109.668 28.0131 109.387 28.5744C109.107 29.1357 108.97 29.7805 108.978 30.5086C108.978 31.2292 109.118 31.8702 109.399 32.4315C109.687 32.9852 110.081 33.4176 110.582 33.7286C111.09 34.032 111.674 34.1837 112.334 34.1837Z" fill="black"/>
<path d="M122.313 24.2282H118.854L122.597 36.7665H125.624L128.086 28.7583L130.743 36.7665H133.724L137.479 24.2282H134.351L132.221 32.0325L129.867 24.2282H126.841L124.499 32.2044L122.313 24.2282Z" fill="black"/>
</svg>
